<svg width="17" height="17" viewBox="0 0 17 17" fill="none" xmlns="http://www.w3.org/2000/svg">
<path d="M5.73656 9.61828C5.90513 9.28179 6 8.90197 6 8.5C6 8.09803 5.90513 7.71821 5.73656 7.38172M5.73656 9.61828C5.32611 10.4376 4.47874 11 3.5 11C2.11929 11 1 9.88071 1 8.5C1 7.11929 2.11929 6 3.5 6C4.47874 6 5.32611 6.56243 5.73656 7.38172M5.73656 9.61828L11.2634 12.3817M5.73656 7.38172L11.2634 4.61828M11.2634 4.61828C11.6739 5.43757 12.5213 6 13.5 6C14.8807 6 16 4.88071 16 3.5C16 2.11929 14.8807 1 13.5 1C12.1193 1 11 2.11929 11 3.5C11 3.90197 11.0949 4.28179 11.2634 4.61828ZM11.2634 12.3817C11.0949 12.7182 11 13.098 11 13.5C11 14.8807 12.1193 16 13.5 16C14.8807 16 16 14.8807 16 13.5C16 12.1193 14.8807 11 13.5 11C12.5213 11 11.6739 11.5624 11.2634 12.3817Z" stroke="#858585" stroke-width="2" stroke-linecap="round" stroke-linejoin="round"/>
</svg>
